<?xml version="1.0" standalone="no"?><!DOCTYPE svg PUBLIC "-//W3C//DTD SVG 1.1//EN" "http://www.w3.org/Graphics/SVG/1.1/DTD/svg11.dtd"><svg t="1610715886876" class="icon" viewBox="0 0 1024 1024" version="1.1" xmlns="http://www.w3.org/2000/svg" p-id="1064" xmlns:xlink="http://www.w3.org/1999/xlink" width="200" height="200"><defs><style type="text/css"></style></defs><path d="M516.58 351.86c-53.47-6.42-154.52-7.53-208.6 82.83s-47.34 230.41 69.53 308.72c123.62 82.83 285.86 45.18 347.67-67.77 48.78-89.14 38.63-173.18-23.18-233.42-54.63-53.24-138.74-84.76-185.42-90.36z" fill="#FF514D" p-id="1065"></path><path d="M502.24 812.46c-57.16 0-114.23-17.58-163.15-51.22-31.43-21.61-57-48.49-75.98-79.89-17.51-28.96-29.03-61.02-34.26-95.3-9.78-64.15 3.58-131.07 36.65-183.59 30.41-48.3 71.11-79.2 120.98-91.82 43.99-11.14 87.39-5.8 110.7-2.93 26.46 3.26 61.24 14.95 97.94 32.93 37.99 18.61 75.48 42.83 105.56 68.21 76.4 64.45 86.83 164.02 28.61 273.18-16.52 30.98-39.44 57.51-68.11 78.86-27.67 20.61-59.24 35.34-93.82 43.77-21.41 5.23-43.27 7.8-65.12 7.8z m-58.05-471.74c-15.77 0-32.14 1.47-48.66 5.65-40.95 10.37-73.28 35.14-98.84 75.73-28.42 45.14-39.87 102.88-31.41 158.4 4.49 29.47 14.37 56.99 29.36 81.78 16.26 26.89 38.24 49.97 65.32 68.59 58.98 40.55 131.39 54.39 198.66 37.98 29.75-7.26 56.85-19.88 80.54-37.53 24.28-18.08 43.66-40.51 57.6-66.65 24.12-45.23 35.33-89.41 32.41-127.78-3-39.54-20.59-73.15-52.27-99.87-60.86-51.34-141.47-87.46-184.24-92.73-15.03-1.85-31.4-3.57-48.47-3.57z" fill="#F43B3B" p-id="1066"></path><path d="M636.33 368.05s0.25-18.94-14.75-30.51-71.58-31.27-79.2-27.58c0 0 1.47 32.23 20.16 51.42s30 23.13 30 23.13-59.05 23.84-64.96 40.81c0 0 24.35 21.16 56.57 19.7s43.79-16.47 43.79-16.47-2.22 24.6 14.5 49.45 29.75 42.08 29.75 42.08 27.33-60.26 8.64-79.45c0 0 58.8-4.9 70.36-19.9 0 0-25.66-55.86-75.11-41.36 0 0 6.01-33.44 19.3-35.16L673 317.39s-26.82 22.37-36.67 50.66z" fill="#9EDD54" p-id="1067"></path><path d="M660.55 545.18c-5.73 0-11.19-2.68-14.7-7.31-0.65-0.86-16.16-21.4-36.26-51.27-9.08-13.49-14.21-27-17.08-38.58-9.53 3.62-21.62 6.48-36.66 7.16-1.57 0.07-3.12 0.11-4.66 0.11-43.11 0-74.72-27.03-76.09-28.22a18.418 18.418 0 0 1-5.31-19.97c3.18-9.13 11.79-22.21 50.47-42.37 2.58-1.34 5.13-2.64 7.62-3.87-3.73-3.3-7.73-7.11-12-11.49-26.98-27.71-29.28-71.8-29.37-73.66a18.431 18.431 0 0 1 10.39-17.43c6.55-3.17 14.49-3.17 28.29-0.02 8.43 1.92 18.79 5 29.95 8.88 9.41 3.28 41.27 14.85 55.98 26.2 3.44 2.65 6.4 5.5 8.96 8.46 13.94-18.96 28.67-31.38 29.62-32.18 7-5.84 17.23-5.69 24.05 0.37l28.98 25.74c5.4 4.8 7.5 12.31 5.38 19.21a18.428 18.428 0 0 1-10.92 11.75c-1.15 2.2-2.32 6-3.33 10.58 20.91 0.64 40.15 9.77 55.82 26.84 15.38 16.75 22.22 35.36 22.95 37.42a18.45 18.45 0 0 1-2.78 17.39c-5.55 7.2-17.65 17.68-58.49 25.52-5.11 0.98-10.09 1.81-14.69 2.51 1.5 12.42-0.07 27.49-4.68 45.42-5.72 22.23-14.28 41.21-14.64 42.01a18.434 18.434 0 0 1-14.75 10.71c-0.69 0.05-1.37 0.09-2.05 0.09z m-34.67-126.56c-0.08 1.44-1.12 24.47 14.31 47.41 5.34 7.94 10.38 15.24 14.88 21.65 0.46-1.62 0.91-3.28 1.33-4.94 6.35-24.9 3.63-35.99 1.31-38.37a18.414 18.414 0 0 1-4.06-19.31c2.5-6.68 8.63-11.32 15.73-11.91 0.16-0.01 16.3-1.39 33.97-4.72 13.62-2.56 22.48-5.21 28.14-7.37-2.46-4.04-5.65-8.54-9.59-12.71-12.68-13.42-26.73-17.28-44.21-12.16-5.71 1.67-11.88 0.49-16.56-3.18-4.68-3.67-7.3-9.38-7.04-15.32 0.02-0.54 0.62-13.38 3.4-26.69 1.66-7.93 3.87-14.7 6.61-20.29l-2.05-1.82c-9.07 9.7-21.24 24.89-27.08 41.67-3 8.62-11.87 13.98-20.83 12.28-8.93-1.69-15.3-9.4-15.01-18.47-0.05-1.31-0.76-14.34-10.5-21.85-10.13-7.81-40.12-19.34-60.9-25.5 2.79 9.1 7.3 19.15 14.58 26.63 16.77 17.22 27.41 22.5 29.06 23.25 7.41 2.25 12.18 8.78 12.58 16.55 0.4 7.85-4.69 14.94-11.97 17.88-0.15 0.06-15.96 6.47-32.78 15.11-10.47 5.38-17.86 9.81-23.04 13.32 9.83 4.79 23.19 9.29 38.03 8.6 26.53-1.21 37.26-11.13 38.9-12.82 4.75-6.86 13.23-9.34 21.1-6.48 7.93 2.9 12.55 11.15 11.69 19.56z m-121.53 1.21z m236.43-23.59zM571.58 347z" fill="#7EC93D" p-id="1068"></path></svg>